<svg width="32" height="32" viewBox="0 0 32 32" fill="none" xmlns="http://www.w3.org/2000/svg">
<path d="M20.1296 17.9298V18.9298C20.1296 19.5865 20.0003 20.2366 19.749 20.8433C19.4977 21.4499 19.1294 22.0011 18.6651 22.4654C18.2008 22.9297 17.6496 23.298 17.043 23.5492C16.4364 23.8005 15.7862 23.9298 15.1296 23.9298H11.8696C11.8542 24.4767 11.6895 25.009 11.3934 25.469C11.0973 25.929 10.681 26.2993 10.1896 26.5398C9.77975 26.7446 9.32773 26.8508 8.86959 26.8498C8.19185 26.8539 7.53273 26.6283 6.99959 26.2098L3.28959 23.2998C2.92825 23.0194 2.63583 22.6601 2.43466 22.2493C2.23349 21.8386 2.12891 21.3872 2.12891 20.9298C2.12891 20.4725 2.23349 20.0211 2.43466 19.6104C2.63583 19.1996 2.92825 18.8403 3.28959 18.5598L6.99959 15.6498C7.44658 15.2931 7.98624 15.0716 8.55496 15.0113C9.12368 14.9511 9.69777 15.0547 10.2096 15.3098C10.8911 15.6358 11.416 16.2182 11.6696 16.9298H19.0996C19.2334 16.9258 19.3667 16.9487 19.4915 16.9972C19.6163 17.0456 19.7301 17.1187 19.8262 17.2119C19.9222 17.3052 19.9986 17.4168 20.0507 17.5401C20.1028 17.6634 20.1296 17.796 20.1296 17.9298Z" fill="#C6C6C6"/>
<path d="M29.8691 11.07C29.8692 11.5273 29.7647 11.9786 29.5637 12.3893C29.3626 12.8001 29.0703 13.1595 28.7091 13.44L24.9991 16.35C24.4585 16.77 23.7938 16.9986 23.1091 17C22.651 17.0009 22.199 16.8947 21.7891 16.69C21.1076 16.364 20.5827 15.7816 20.3291 15.07H12.8691C12.6039 15.07 12.3496 14.9646 12.162 14.7771C11.9745 14.5895 11.8691 14.3352 11.8691 14.07V13.07C11.8691 11.7439 12.3959 10.4721 13.3336 9.53442C14.2713 8.59674 15.5431 8.06995 16.8691 8.06995H20.1291C20.1413 7.5109 20.3095 6.96638 20.6147 6.49784C20.9199 6.02929 21.35 5.65537 21.8564 5.41828C22.3628 5.18118 22.9255 5.09034 23.4808 5.15602C24.0361 5.22169 24.562 5.44126 24.9991 5.78995L28.7091 8.69995C29.0703 8.98045 29.3626 9.33981 29.5637 9.75057C29.7647 10.1613 29.8692 10.6126 29.8691 11.07Z" fill="#C6C6C6"/>
</svg>
