<svg width="312" height="312" viewBox="0 0 312 312" fill="none" xmlns="http://www.w3.org/2000/svg">
<mask id="mask0_1619_7420" style="mask-type:alpha" maskUnits="userSpaceOnUse" x="0" y="0" width="312" height="312">
<rect width="312" height="312" rx="40" fill="#C4C4C4"/>
</mask>
<g mask="url(#mask0_1619_7420)">
<g filter="url(#filter0_d_1619_7420)">
<g filter="url(#filter1_i_1619_7420)">
<path d="M24.9528 46.3316C24.5746 44.9625 25.9612 43.4619 27.467 43.6107L221.633 62.8038C225.932 63.2288 229.267 65.9158 230.347 69.8246L285.069 267.884C285.448 269.253 284.061 270.754 282.555 270.605L86.0676 251.182C83.2015 250.899 80.978 249.108 80.2581 246.502L24.9528 46.3316Z" fill="#D3BDFF"/>
</g>
<g filter="url(#filter2_d_1619_7420)">
<path d="M41.416 53.6528L217.036 71.0126C219.893 71.2951 222.113 73.0771 222.839 75.6721L272.509 253.132L92.2616 235.315L41.416 53.6528Z" fill="white"/>
<path d="M41.416 53.6528L217.036 71.0126C219.893 71.2951 222.113 73.0771 222.839 75.6721L272.509 253.132L92.2616 235.315L41.416 53.6528Z" fill="url(#paint0_linear_1619_7420)" fill-opacity="0.2"/>
</g>
<path d="M140.394 143.241C143.068 138.15 149.046 128.833 151.557 132.291C154.697 136.614 147.545 139.928 159.739 136.378C171.933 132.829 168.053 136.202 175.551 137.98C183.048 139.758 175.073 137.151 197.426 138.873C215.309 140.251 223.591 136.728 225.497 134.795" stroke="#292B2D" stroke-width="3" stroke-linecap="round"/>
<rect x="1.85017" y="1.31985" width="24.8895" height="24.5475" transform="matrix(1.01329 -0.0264294 0.220152 0.906332 84.8235 127.22)" stroke="#91919F" stroke-width="3"/>
<path d="M91.324 136.222C93.75 140.822 99.8711 148.9 104.947 144.414C111.293 138.807 115.394 121.89 127.161 120.566" stroke="#FCAC12" stroke-width="6" stroke-linecap="round" stroke-linejoin="round"/>
<path d="M146.805 172.224C149.592 167.174 154.9 168.701 159.718 168.226C167.289 167.479 162.853 158.991 170.145 160.786C178.496 162.843 174.529 165.751 181.956 167.695C189.382 169.638 181.5 166.853 203.727 169.057C221.509 170.82 229.845 167.462 231.791 165.563" stroke="#292B2D" stroke-width="3" stroke-linecap="round"/>
<rect x="1.87515" y="1.31051" width="24.8895" height="24.5556" transform="matrix(1.01329 -0.0264294 0.23681 0.900101 94.5749 159.999)" stroke="#91919F" stroke-width="3"/>
<path d="M155.727 205.318C158.915 200.484 164.055 202.436 168.878 202.343C176.454 202.198 175.14 203.502 182.227 205.879C190.344 208.602 183.784 201.046 190.993 203.582C198.201 206.118 190.61 202.703 212.487 206.678C229.988 209.858 238.542 207.16 240.631 205.414" stroke="#292B2D" stroke-width="3" stroke-linecap="round"/>
<rect x="1.87515" y="1.31051" width="24.8895" height="24.5556" transform="matrix(1.01329 -0.0264294 0.23681 0.900101 103.491 193.387)" stroke="#91919F" stroke-width="3"/>
<path d="M96.1258 94.9534C96.1131 94.867 96.1513 94.8366 96.2403 94.8623C96.346 94.8673 96.4336 94.8607 96.503 94.8425C96.2136 94.6571 95.979 94.4205 95.7992 94.1329C95.6097 93.8234 95.3653 93.5649 95.0661 93.3575C95.0701 93.2503 95.0609 93.1425 95.0385 93.0341C95.0425 92.927 95.1418 92.8888 95.3365 92.9195C95.0424 92.4333 94.8554 91.9843 94.7756 91.5726C94.6957 91.161 94.6784 90.7737 94.7237 90.411C94.7955 90.0494 94.8985 89.7001 95.0328 89.363C95.1838 89.0053 95.3216 88.6469 95.4462 88.2878C95.6644 88.2553 95.8194 88.2841 95.9113 88.3743C95.9934 88.4426 96.0761 88.4251 96.1594 88.3217C96.4746 88.1006 96.648 87.8512 96.6796 87.5736C96.7014 87.2741 96.6341 86.9489 96.4779 86.598C96.4617 86.0391 96.4769 85.4924 96.5233 84.958C96.5864 84.4028 96.7087 83.8934 96.8901 83.4298C97.0715 82.9661 97.3086 82.5695 97.6014 82.2399C97.8845 81.8885 98.2463 81.6266 98.6867 81.4543C98.9393 81.2087 99.2942 80.9894 99.7513 80.7965C100.235 80.6048 100.769 80.4691 101.354 80.3896C101.956 80.2894 102.6 80.2556 103.287 80.2882C103.964 80.2989 104.623 80.3839 105.262 80.5431C105.414 80.5932 105.483 80.575 105.471 80.4886C105.448 80.3802 105.49 80.3285 105.596 80.3335C106.975 80.5278 108.248 80.803 109.415 81.1589C110.609 81.5162 111.697 81.9865 112.681 82.5699C113.476 83.2517 114.269 83.987 115.059 84.7759C115.84 85.5429 116.535 86.3487 117.144 87.1934C117.77 88.0174 118.265 88.8674 118.629 89.7434C118.993 90.6193 119.159 91.4859 119.127 92.3431C118.632 93.2641 117.856 93.9893 116.799 94.5187C115.732 95.0262 114.52 95.4409 113.164 95.7628C111.824 96.0641 110.389 96.2965 108.859 96.4599C107.355 96.6246 105.9 96.8131 104.495 97.0254C104.785 97.6188 105.068 98.2548 105.345 98.9334C105.611 99.5901 105.817 100.255 105.961 100.927C106.122 101.579 106.199 102.216 106.191 102.838C106.21 103.461 106.104 104.036 105.873 104.561C105.335 104.514 104.799 104.532 104.267 104.614C103.761 104.697 103.308 104.783 102.908 104.871C102.648 104.752 102.388 104.632 102.127 104.512C101.903 104.416 101.641 104.35 101.341 104.314C101.303 104.055 101.102 103.777 100.737 103.48C100.399 103.185 100.052 102.9 99.6972 102.626C99.3589 102.331 99.0915 102.05 98.8951 101.783C98.7153 101.495 98.7615 101.25 99.0337 101.049C98.754 100.885 98.5409 100.639 98.3945 100.31C98.5392 100.403 98.6908 100.453 98.8493 100.46C98.6207 100.063 98.4636 99.594 98.3779 99.0533C98.3187 98.5138 98.2248 97.9834 98.0961 97.4621C97.984 96.9201 97.7907 96.4279 97.5162 95.9855C97.2319 95.5212 96.7684 95.1772 96.1258 94.9534ZM103 87.7451C103.002 87.9813 103.007 88.1962 103.016 88.3899C103.041 88.5628 103.048 88.7241 103.038 88.8739C103.027 89.0236 103.003 89.1728 102.965 89.3213C102.954 89.471 102.94 89.6421 102.922 89.8344C103.034 89.9685 103.183 90.0722 103.371 90.1455C103.559 90.2189 103.709 90.3226 103.82 90.4567C104.121 90.3207 104.442 90.2286 104.783 90.1804C105.114 90.1103 105.454 90.062 105.804 90.0357C106.155 90.0095 106.5 89.9722 106.841 89.924C107.181 89.8757 107.515 89.7843 107.843 89.6496C108.171 89.5149 108.527 89.4137 108.911 89.3461C109.311 89.2578 109.698 89.1688 110.072 89.0792C110.445 88.9897 110.801 88.8885 111.139 88.7757C111.467 88.641 111.722 88.46 111.905 88.2325C111.409 87.9299 110.742 87.6513 109.904 87.3969C109.067 87.1424 108.203 86.9726 107.312 86.8873C106.437 86.7813 105.598 86.7844 104.795 86.8965C104.018 87.0099 103.42 87.2927 103 87.7451Z" fill="#292B2D"/>
<path d="M136.349 105.591C135.698 105.753 134.98 105.912 134.196 106.068C133.412 106.224 132.584 106.281 131.713 106.24C130.392 106.177 129.226 105.853 128.216 105.269C127.977 105.021 127.785 104.851 127.64 104.758C127.522 104.667 127.403 104.575 127.285 104.484C127.183 104.372 127.08 104.227 126.976 104.05C126.522 103.728 126.115 103.366 125.754 102.962C125.384 102.537 125.066 102.114 124.801 101.693C124.553 101.252 124.345 100.813 124.176 100.375C124.033 99.9393 123.94 99.527 123.897 99.1385C123.91 99.0533 123.898 98.9669 123.859 98.8791C123.846 98.7927 123.828 98.6952 123.806 98.5868C123.755 98.241 123.71 97.906 123.669 97.5821C123.655 97.2594 123.699 96.9825 123.803 96.7513C123.61 96.5489 123.512 96.3296 123.51 96.0933C123.508 95.8571 123.53 95.6435 123.574 95.4524C123.573 94.6365 123.564 93.9492 123.548 93.3903C123.548 92.8107 123.554 92.2421 123.564 91.6844C123.574 90.7189 123.562 89.763 123.528 88.8169C123.495 87.8708 123.388 86.846 123.207 85.7426C123.369 85.6429 123.493 85.5737 123.58 85.5349C123.719 85.4985 123.836 85.4719 123.932 85.455C124.495 85.675 125.138 85.8987 125.86 86.1262C126.572 86.3318 127.139 86.4446 127.562 86.4647C127.822 86.5844 127.993 86.6784 128.075 86.7467C128.148 86.793 128.22 86.8394 128.292 86.8858C128.71 87.1847 129.093 87.4927 129.441 87.8097C129.779 88.1049 130.016 88.4918 130.151 88.9705C130.081 89.1604 130.006 89.2534 129.927 89.2497C129.99 89.682 130.011 90.0479 129.989 90.3474C129.993 90.6482 129.985 90.9483 129.963 91.2478C129.925 91.568 129.899 91.8888 129.887 92.2102C129.875 92.5317 129.924 92.9311 130.033 93.4086C129.976 93.5132 129.941 93.6081 129.927 93.6933C129.94 93.7798 129.944 93.8766 129.94 93.9838C129.936 94.0909 129.924 94.2084 129.903 94.3362C129.899 94.4434 129.851 94.5377 129.758 94.6191C129.932 95.1855 130.005 95.6398 129.977 95.9819C129.974 96.3253 129.959 96.668 129.93 97.0101C129.896 97.6311 129.889 98.2533 129.908 98.8767C129.954 99.5014 130.13 100.218 130.439 101.027C130.552 100.99 130.661 100.973 130.766 100.978C130.898 100.985 131.017 100.99 131.123 100.995C131.361 101.007 131.653 101.053 131.999 101.133C132.635 100.82 133.401 100.653 134.296 100.631C135.218 100.61 136.136 100.611 137.051 100.633C137.421 100.65 137.791 100.668 138.16 100.686C138.53 100.703 138.864 100.698 139.161 100.669C139.448 100.79 139.622 100.862 139.685 100.887C139.764 100.891 139.87 100.896 140.002 100.902C140.187 100.911 140.35 100.929 140.492 100.957C140.917 101.214 141.298 101.404 141.638 101.527C141.977 101.65 142.325 101.764 142.681 101.866C143.011 101.968 143.332 102.08 143.645 102.202C143.975 102.303 144.311 102.448 144.653 102.636L145.56 104.064C145.833 104.27 145.971 104.405 145.974 104.47C146.052 104.645 146.057 104.774 145.991 104.857L146.231 105.223C145.864 105.27 145.621 105.333 145.502 105.414C145.409 105.495 145.32 105.587 145.237 105.691C145.036 105.703 144.882 105.706 144.776 105.701C144.697 105.697 144.618 105.694 144.539 105.69C144.169 105.672 143.744 105.706 143.265 105.79C142.464 105.559 141.68 105.425 140.914 105.389C140.623 105.375 140.324 105.372 140.017 105.378C139.71 105.385 139.403 105.392 139.096 105.399C138.798 105.428 138.483 105.445 138.149 105.451C137.842 105.458 137.516 105.453 137.173 105.437L136.349 105.591Z" fill="#292B2D"/>
<path d="M169.038 104.793C169.046 105.158 168.979 105.531 168.838 105.91C168.713 106.269 168.508 106.592 168.222 106.879C167.952 107.146 167.611 107.365 167.197 107.539C166.783 107.713 166.303 107.797 165.758 107.793C165.386 107.711 165.114 107.623 164.943 107.529C164.808 107.458 164.659 107.386 164.498 107.314C164.399 107.267 164.305 107.23 164.216 107.204C164.144 107.158 164.077 107.122 164.014 107.098L163.465 106.911L163.433 106.491C163.408 106.318 163.336 106.186 163.218 106.094C163.09 105.981 162.868 105.831 162.552 105.644C162.443 105.574 162.335 105.505 162.226 105.435C162.118 105.366 162.022 105.297 161.94 105.228L160.988 104.571L161.956 104.392C162.548 104.27 162.896 104.093 163 103.862C163.13 103.632 163.042 103.231 162.735 102.658C162.168 102.545 161.714 102.513 161.373 102.561C161.059 102.611 160.737 102.67 160.406 102.741C159.979 102.828 159.535 102.903 159.072 102.967C158.625 103.01 158.112 103.018 157.531 102.99C157.319 102.98 157.121 102.971 156.936 102.962C156.742 102.931 156.534 102.9 156.313 102.868L155.887 102.783C155.727 102.54 155.615 102.406 155.553 102.381C155.481 102.335 155.408 102.288 155.336 102.242C155.155 102.126 154.946 101.977 154.709 101.794C154.49 101.59 154.356 101.348 154.308 101.066C154.088 100.863 153.921 100.661 153.807 100.463C153.765 100.718 153.768 100.987 153.816 101.268L153.804 101.59L153.437 101.637C153.394 101.656 153.379 101.709 153.392 101.796C153.394 101.86 153.406 101.914 153.425 101.958L153.476 102.508C153.443 102.549 153.409 102.591 153.376 102.632C153.333 102.651 153.295 102.682 153.262 102.723C153.297 102.918 153.319 103.112 153.327 103.306C153.336 103.5 153.34 103.682 153.338 103.854C153.333 104.133 153.341 104.412 153.363 104.692C153.401 104.952 153.491 105.214 153.635 105.478L153.638 105.832C153.564 105.958 153.468 106.06 153.348 106.141C153.219 106.199 153.09 106.257 152.961 106.315C152.927 106.357 152.868 106.397 152.781 106.436C152.712 106.454 152.656 106.473 152.613 106.492L152.655 106.848L152.209 106.891C151.938 106.921 151.741 106.944 151.619 106.96C151.523 106.977 151.396 106.982 151.237 106.974L150.826 106.922C150.448 106.711 150.155 106.547 149.947 106.43C149.73 106.291 149.492 106.161 149.232 106.042C148.877 105.767 148.657 105.563 148.572 105.431C148.487 105.298 148.407 105.176 148.331 105.065C148.22 104.931 148.145 104.82 148.106 104.732C148.04 104.643 147.971 104.576 147.899 104.529L147.208 104.11L147.512 103.835L147.303 103.277C147.333 102.184 147.409 101.136 147.531 100.133C147.68 99.1306 147.832 98.1074 147.988 97.0629C148.043 96.7221 148.085 96.3806 148.113 96.0385C148.168 95.6976 148.223 95.3568 148.278 95.0159C148.223 94.9489 148.175 94.8715 148.136 94.7838C148.097 94.6961 148.08 94.5986 148.084 94.4915C148.208 94.1325 148.3 93.8148 148.357 93.5385C148.406 93.2402 148.454 92.942 148.502 92.6437C148.547 92.2809 148.598 91.9291 148.653 91.5883C148.734 91.2487 148.864 90.9006 149.041 90.5441L149.573 90.3439C149.642 90.3258 149.725 90.3082 149.821 90.2913C149.907 90.2525 150.016 90.2362 150.148 90.2425L150.772 90.3365C151.384 90.0865 151.856 89.7225 152.186 89.2445C152.506 88.7445 152.796 88.1464 153.055 87.4503L153.246 87.0086L153.878 87.2962C154.04 87.3683 154.254 87.4429 154.521 87.52C154.778 87.5751 155.053 87.6419 155.347 87.7202C155.861 87.8305 156.354 87.9505 156.826 88.0803C157.297 88.21 157.714 88.3908 158.076 88.6227C158.391 88.9811 158.6 89.2486 158.705 89.4253C158.809 89.6021 158.927 89.7794 159.058 89.9573C159.303 90.3339 159.535 90.7099 159.754 91.0852C159.999 91.4618 160.238 91.881 160.469 92.3428C160.767 92.7219 161.039 93.0998 161.284 93.4763C161.546 93.8323 161.8 94.1985 162.045 94.5751C162.411 95.1077 162.773 95.6294 163.13 96.1401C163.477 96.6288 163.853 97.0975 164.26 97.5462C164.471 97.5562 164.608 97.5734 164.671 97.5979C164.783 97.5603 164.901 97.5337 165.023 97.518C165.172 97.5036 165.334 97.4898 165.509 97.4767L165.93 97.4645L166.235 97.801C166.31 97.9119 166.491 98.0278 166.778 98.1488C167.131 98.187 167.411 98.2647 167.619 98.3819C167.816 98.4772 168.005 98.5828 168.186 98.6987C168.331 98.7914 168.466 98.8623 168.591 98.9111L169.273 99.1368L169.176 99.6151C169.088 99.9973 168.876 100.363 168.54 100.712C168.22 101.04 167.811 101.311 167.311 101.523C167.396 101.656 167.467 101.788 167.526 101.92C167.601 102.03 167.695 102.153 167.806 102.287C168.051 102.664 168.288 103.051 168.517 103.448C168.745 103.845 168.926 104.251 169.059 104.665L169.038 104.793ZM155.053 98.5578C155.826 98.5516 156.519 98.5416 157.134 98.5279C157.765 98.4934 158.447 98.4293 159.181 98.3353C158.703 97.6686 158.203 96.9793 157.679 96.2675C157.145 95.5338 156.603 94.8103 156.053 94.0973L155.962 94.4149C155.639 94.8504 155.353 95.3413 155.105 95.8876C154.883 96.4353 154.713 96.9531 154.594 97.4412C154.524 97.6311 154.453 97.8209 154.383 98.0107C154.312 98.2006 154.255 98.3911 154.21 98.5822C154.359 98.5678 154.499 98.5637 154.632 98.57C154.79 98.5775 154.93 98.5735 155.053 98.5578Z" fill="#292B2D"/>
<path d="M179.964 102.156C179.745 102.189 179.627 102.301 179.61 102.494C179.582 102.664 179.559 102.845 179.542 103.038C179.55 103.231 179.541 103.413 179.513 103.584C179.502 103.734 179.405 103.804 179.22 103.795C179.271 103.97 179.26 104.119 179.187 104.245C179.14 104.371 179.098 104.509 179.06 104.657C179.013 104.784 179.002 104.933 179.028 105.106C179.043 105.257 179.153 105.445 179.356 105.669C179.203 105.791 179.154 105.971 179.209 106.21C179.263 106.449 179.3 106.676 179.318 106.891C179.363 107.108 179.34 107.289 179.25 107.435C179.16 107.581 178.899 107.633 178.466 107.591C178.426 107.675 178.437 107.73 178.5 107.754C178.563 107.778 178.636 107.857 178.721 107.99C178.411 107.932 178.192 107.933 178.062 107.991C177.969 108.072 177.822 108.119 177.621 108.131C177.06 107.975 176.535 107.725 176.045 107.38C175.582 107.036 175.13 106.66 174.69 106.253C174.267 105.825 173.857 105.397 173.46 104.971C173.089 104.545 172.743 104.175 172.422 103.859C172.393 103.621 172.304 103.392 172.154 103.17C171.993 102.926 171.813 102.724 171.613 102.565C171.891 100.345 172.221 97.978 172.601 95.463C172.98 92.9479 173.296 90.462 173.546 88.0052C174.242 88.2314 174.939 88.4899 175.637 88.7807C176.352 89.0508 177.02 89.3616 177.642 89.7132C178.291 90.066 178.884 90.4699 179.423 90.9248C179.952 91.3578 180.386 91.84 180.726 92.3713C180.732 92.5004 180.691 92.5521 180.602 92.5264C180.529 92.48 180.481 92.4885 180.458 92.5518C180.612 92.6664 180.699 92.7457 180.719 92.7896C180.765 92.8347 180.784 92.8785 180.777 92.9212C180.797 92.965 180.826 93.0308 180.865 93.1185C180.895 93.1843 180.978 93.2849 181.116 93.4202C181.001 93.3933 180.926 93.4005 180.893 93.4418C180.886 93.4845 180.807 93.4807 180.655 93.4306C180.868 93.6768 180.983 93.8754 180.998 94.0265C181.04 94.1787 181.051 94.3188 181.03 94.4466C181 94.5525 180.992 94.6809 181.008 94.8319C181.013 94.961 181.105 95.1371 181.282 95.3601C181.202 95.3564 181.146 95.3752 181.113 95.4165C181.096 95.4372 181.084 95.4688 181.077 95.5114C181.061 95.5321 181.036 95.5631 181.003 95.6045C180.986 95.6252 180.933 95.6227 180.844 95.597C181.138 96.0832 181.379 96.5669 181.568 97.0482C181.756 97.5294 181.95 98.0216 182.148 98.5247C182.363 99.0072 182.605 99.5232 182.876 100.073C183.137 100.6 183.473 101.153 183.885 101.731C184.631 101.315 185.121 100.759 185.353 100.062C185.612 99.3655 185.713 98.576 185.656 97.6932C185.625 96.8116 185.473 95.8598 185.199 94.8378C184.925 93.8159 184.654 92.7726 184.387 91.708C184.537 91.5219 184.615 91.2895 184.62 91.0107C184.625 90.7318 184.612 90.4414 184.581 90.1394C184.54 89.8155 184.504 89.5025 184.473 89.2005C184.432 88.8765 184.433 88.5867 184.474 88.3311C184.89 88.3938 185.269 88.5191 185.611 88.7071C185.97 88.8744 186.312 89.0624 186.638 89.2711C186.954 89.4578 187.283 89.6452 187.625 89.8332C187.958 89.9993 188.332 90.1136 188.747 90.1763C189.23 90.5642 189.682 90.9399 190.103 91.3033C190.523 91.6668 190.861 92.0477 191.116 92.4463C191.062 92.6154 191.044 92.8078 191.062 93.0233C191.107 93.2401 191.139 93.4563 191.157 93.6719C191.176 93.8874 191.163 94.0907 191.118 94.2818C191.064 94.451 190.948 94.5957 190.769 94.716C190.943 95.2825 191.072 95.8038 191.155 96.28C191.254 96.7355 191.34 97.1904 191.413 97.6447C191.513 98.1002 191.635 98.5783 191.781 99.0789C191.916 99.5577 192.129 100.094 192.419 100.687C192.432 101.181 192.447 101.708 192.463 102.267C192.479 102.826 192.524 103.333 192.597 103.787C192.301 104.052 192.122 104.376 192.06 104.76C191.998 105.143 191.923 105.526 191.835 105.908C191.768 105.991 191.712 106.01 191.666 105.964C191.62 105.919 191.513 105.882 191.345 105.853C191.41 105.942 191.439 106.007 191.433 106.05C191.426 106.093 191.406 106.135 191.372 106.176C191.356 106.197 191.349 106.239 191.352 106.304C191.381 106.369 191.446 106.458 191.548 106.571C191.237 106.685 190.99 106.855 190.807 107.083C190.623 107.31 190.404 107.514 190.148 107.696C189.919 107.878 189.582 107.991 189.136 108.034C188.716 108.078 188.087 107.973 187.25 107.719C185.874 107.009 184.573 106.207 183.347 105.312C182.147 104.417 181.019 103.366 179.964 102.156Z" fill="#292B2D"/>
<g filter="url(#filter3_i_1619_7420)">
<path d="M82.1515 43.901C80.3119 38.3949 85.922 32.0773 92.1081 32.6888L155.516 38.9566C166.459 40.0383 175.099 46.6243 178.353 56.3643L181.378 65.4193C183.218 70.9254 177.608 77.2429 171.422 76.6314L108.014 70.3636C97.0713 69.2819 88.431 62.6959 85.1768 52.9559L82.1515 43.901Z" fill="#8F57FF"/>
</g>
</g>
</g>
<defs>
<filter id="filter0_d_1619_7420" x="-23.1094" y="16.6475" width="356.242" height="333.968" filterUnits="userSpaceOnUse" color-interpolation-filters="sRGB">
<feFlood flood-opacity="0" result="BackgroundImageFix"/>
<feColorMatrix in="SourceAlpha" type="matrix" values="0 0 0 0 0 0 0 0 0 0 0 0 0 0 0 0 0 0 127 0" result="hardAlpha"/>
<feOffset dy="32"/>
<feGaussianBlur stdDeviation="24"/>
<feColorMatrix type="matrix" values="0 0 0 0 0 0 0 0 0 0 0 0 0 0 0 0 0 0 0.08 0"/>
<feBlend mode="normal" in2="BackgroundImageFix" result="effect1_dropShadow_1619_7420"/>
<feBlend mode="normal" in="SourceGraphic" in2="effect1_dropShadow_1619_7420" result="shape"/>
</filter>
<filter id="filter1_i_1619_7420" x="24.8906" y="43.6006" width="263.242" height="227.015" filterUnits="userSpaceOnUse" color-interpolation-filters="sRGB">
<feFlood flood-opacity="0" result="BackgroundImageFix"/>
<feBlend mode="normal" in="SourceGraphic" in2="BackgroundImageFix" result="shape"/>
<feColorMatrix in="SourceAlpha" type="matrix" values="0 0 0 0 0 0 0 0 0 0 0 0 0 0 0 0 0 0 127 0" result="hardAlpha"/>
<feOffset dx="3"/>
<feGaussianBlur stdDeviation="4"/>
<feComposite in2="hardAlpha" operator="arithmetic" k2="-1" k3="1"/>
<feColorMatrix type="matrix" values="0 0 0 0 0.831373 0 0 0 0 0.443137 0 0 0 0 0.168627 0 0 0 0.24 0"/>
<feBlend mode="normal" in2="shape" result="effect1_innerShadow_1619_7420"/>
</filter>
<filter id="filter2_d_1619_7420" x="40.416" y="53.6528" width="232.092" height="205.479" filterUnits="userSpaceOnUse" color-interpolation-filters="sRGB">
<feFlood flood-opacity="0" result="BackgroundImageFix"/>
<feColorMatrix in="SourceAlpha" type="matrix" values="0 0 0 0 0 0 0 0 0 0 0 0 0 0 0 0 0 0 127 0" result="hardAlpha"/>
<feOffset dx="-1" dy="6"/>
<feColorMatrix type="matrix" values="0 0 0 0 0.9125 0 0 0 0 0.9125 0 0 0 0 0.9125 0 0 0 1 0"/>
<feBlend mode="normal" in2="BackgroundImageFix" result="effect1_dropShadow_1619_7420"/>
<feBlend mode="normal" in="SourceGraphic" in2="effect1_dropShadow_1619_7420" result="shape"/>
</filter>
<filter id="filter3_i_1619_7420" x="81.7969" y="24.6475" width="106.936" height="52.0249" filterUnits="userSpaceOnUse" color-interpolation-filters="sRGB">
<feFlood flood-opacity="0" result="BackgroundImageFix"/>
<feBlend mode="normal" in="SourceGraphic" in2="BackgroundImageFix" result="shape"/>
<feColorMatrix in="SourceAlpha" type="matrix" values="0 0 0 0 0 0 0 0 0 0 0 0 0 0 0 0 0 0 127 0" result="hardAlpha"/>
<feOffset dx="7" dy="-9"/>
<feGaussianBlur stdDeviation="4"/>
<feComposite in2="hardAlpha" operator="arithmetic" k2="-1" k3="1"/>
<feColorMatrix type="matrix" values="0 0 0 0 0.466447 0 0 0 0 0.260087 0 0 0 0 0.879167 0 0 0 1 0"/>
<feBlend mode="overlay" in2="shape" result="effect1_innerShadow_1619_7420"/>
</filter>
<linearGradient id="paint0_linear_1619_7420" x1="127.892" y1="24.2615" x2="207.802" y2="252.366" gradientUnits="userSpaceOnUse">
<stop stop-opacity="0.04"/>
<stop offset="1" stop-opacity="0"/>
</linearGradient>
</defs>
</svg>
