<svg width="32" height="32" viewBox="0 0 32 32" fill="none" xmlns="http://www.w3.org/2000/svg">
<path d="M12.6083 24.9901L12.6005 24.9898L12.5927 24.9898C12.5266 24.9895 12.4611 24.9761 12.4002 24.9504C12.3392 24.9246 12.284 24.887 12.2377 24.8398L12.2352 24.8373C12.1421 24.7436 12.0898 24.6169 12.0898 24.4848C12.0898 24.353 12.1419 24.2265 12.2347 24.1329C12.2349 24.1327 12.2351 24.1325 12.2352 24.1323L17.8942 18.4733L17.8944 18.4731C18.5498 17.8169 18.918 16.9273 18.918 15.9998C18.918 15.0723 18.5498 14.1827 17.8944 13.5265L17.8942 13.5262L12.2502 7.88224C12.1749 7.78847 12.1359 7.67054 12.1406 7.55004C12.1454 7.4242 12.1976 7.30483 12.2866 7.21578C12.3757 7.12674 12.495 7.07457 12.6209 7.06971C12.7417 7.06504 12.86 7.10434 12.9539 7.18004L18.6475 12.8138C18.6478 12.814 18.648 12.8143 18.6483 12.8145C19.067 13.2324 19.3992 13.7287 19.6259 14.2751C19.8528 14.8218 19.9696 15.4079 19.9696 15.9998C19.9696 16.5917 19.8528 17.1778 19.6259 17.7245C19.3991 18.2712 19.0666 18.7678 18.6475 19.1858L18.6474 19.1859L12.9874 24.8359L12.9874 24.8359L12.9833 24.8401C12.9346 24.8898 12.8762 24.9288 12.8116 24.9547C12.747 24.9805 12.6778 24.9926 12.6083 24.9901Z" fill="black" stroke="#7F3DFF"/>
</svg>
