<svg width="32" height="32" viewBox="0 0 32 32" fill="none" xmlns="http://www.w3.org/2000/svg">
<path d="M16 18C17.1046 18 18 17.1046 18 16C18 14.8954 17.1046 14 16 14C14.8954 14 14 14.8954 14 16C14 17.1046 14.8954 18 16 18Z" fill="#7F3DFF"/>
<path d="M25.789 17L25.409 16.77C25.268 16.687 25.1511 16.5686 25.0699 16.4265C24.9887 16.2844 24.946 16.1236 24.946 15.96C24.946 15.7964 24.9887 15.6356 25.0699 15.4935C25.1511 15.3514 25.268 15.233 25.409 15.15L25.789 14.92C26.4762 14.5225 26.9779 13.8689 27.184 13.1023C27.3902 12.3356 27.2841 11.5186 26.889 10.83L25.889 9.09C25.4899 8.4018 24.8337 7.90034 24.0648 7.69593C23.2959 7.49151 22.4773 7.60089 21.789 8L21.469 8.18C21.3213 8.25909 21.156 8.29977 20.9884 8.29831C20.8209 8.29685 20.6563 8.2533 20.51 8.17166C20.3636 8.09002 20.2401 7.97291 20.1509 7.83108C20.0616 7.68926 20.0094 7.52727 19.999 7.36V7C19.999 6.20435 19.683 5.44129 19.1204 4.87868C18.5577 4.31607 17.7947 4 16.999 4H14.999C14.2034 4 13.4403 4.31607 12.8777 4.87868C12.3151 5.44129 11.999 6.20435 11.999 7V7.36C11.9961 7.53212 11.9487 7.70057 11.8616 7.84903C11.7744 7.99749 11.6504 8.12095 11.5016 8.20744C11.3528 8.29393 11.1841 8.34053 11.012 8.34273C10.8398 8.34493 10.67 8.30266 10.519 8.22L10.209 8C9.52079 7.60089 8.70219 7.49151 7.93331 7.69593C7.16442 7.90034 6.50822 8.4018 6.10904 9.09L5.10904 10.83C4.90074 11.1743 4.76383 11.5569 4.70645 11.9552C4.64906 12.3534 4.67238 12.7591 4.77501 13.1482C4.87764 13.5373 5.05748 13.9017 5.30384 14.2198C5.5502 14.538 5.85804 14.8033 6.20904 15L6.58904 15.23C6.73004 15.313 6.84693 15.4314 6.92814 15.5735C7.00935 15.7156 7.05207 15.8764 7.05207 16.04C7.05207 16.2036 7.00935 16.3644 6.92814 16.5065C6.84693 16.6486 6.73004 16.767 6.58904 16.85L6.20904 17C5.52185 17.3975 5.02021 18.0511 4.81403 18.8177C4.60785 19.5844 4.71393 20.4014 5.10904 21.09L6.10904 22.83C6.29997 23.1775 6.55788 23.4837 6.86787 23.7308C7.17786 23.978 7.53376 24.1613 7.91502 24.2701C8.29627 24.3789 8.69531 24.4111 9.08907 24.3647C9.48282 24.3183 9.86348 24.1944 10.209 24L10.519 23.83C10.6711 23.7422 10.8435 23.696 11.019 23.696C11.1946 23.696 11.367 23.7422 11.519 23.83C11.6654 23.9168 11.7873 24.0394 11.873 24.1864C11.9588 24.3334 12.0056 24.4999 12.009 24.67V25C12.009 25.7956 12.3251 26.5587 12.8877 27.1213C13.4503 27.6839 14.2134 28 15.009 28H17.009C17.8047 28 18.5677 27.6839 19.1304 27.1213C19.693 26.5587 20.009 25.7956 20.009 25V24.63C20.0135 24.4589 20.0619 24.2918 20.1494 24.1447C20.2369 23.9977 20.3608 23.8755 20.509 23.79C20.6611 23.7022 20.8335 23.656 21.009 23.656C21.1846 23.656 21.357 23.7022 21.509 23.79L21.819 23.97C22.5073 24.3691 23.3259 24.4785 24.0948 24.2741C24.8637 24.0697 25.5199 23.5682 25.919 22.88L26.919 21.14C27.1213 20.7951 27.2527 20.4133 27.3053 20.017C27.3579 19.6207 27.3308 19.2178 27.2255 18.8321C27.1202 18.4464 26.9389 18.0857 26.6923 17.771C26.4456 17.4564 26.1385 17.1943 25.789 17ZM15.999 20C15.2079 20 14.4346 19.7654 13.7768 19.3259C13.119 18.8864 12.6063 18.2616 12.3035 17.5307C12.0008 16.7998 11.9216 15.9956 12.0759 15.2196C12.2302 14.4437 12.6112 13.731 13.1706 13.1716C13.73 12.6122 14.4428 12.2312 15.2187 12.0769C15.9946 11.9225 16.7989 12.0017 17.5298 12.3045C18.2607 12.6072 18.8854 13.1199 19.3249 13.7777C19.7644 14.4355 19.999 15.2089 19.999 16C19.999 17.0609 19.5776 18.0783 18.8275 18.8284C18.0773 19.5786 17.0599 20 15.999 20Z" fill="#7F3DFF"/>
</svg>
