<svg width="32" height="32" viewBox="0 0 32 32" fill="none" xmlns="http://www.w3.org/2000/svg">
<path d="M5.37424 15.5L6.23741 14.6448L11.6472 9.28499L5.37424 15.5ZM5.37424 15.5H6.58931M5.37424 15.5H6.58931M6.58931 15.5H26.9993C27.1319 15.5 27.2591 15.5527 27.3529 15.6464C27.4466 15.7402 27.4993 15.8674 27.4993 16C27.4993 16.1326 27.4466 16.2598 27.3529 16.3535C27.2591 16.4473 27.1319 16.5 26.9993 16.5H6.58931H5.38221L6.23576 17.3535L11.5958 22.7135L11.5972 22.715C11.6441 22.7615 11.6813 22.8168 11.7067 22.8777C11.732 22.9386 11.7451 23.004 11.7451 23.07C11.7451 23.136 11.732 23.2014 11.7067 23.2623C11.6813 23.3232 11.6441 23.3785 11.5972 23.425L11.5972 23.425C11.5505 23.4713 11.4951 23.508 11.4342 23.5329C11.3732 23.5578 11.308 23.5704 11.2422 23.57L11.2414 23.57C11.1105 23.5694 10.9851 23.5176 10.892 23.4256C10.8918 23.4254 10.8916 23.4252 10.8914 23.425L5.23309 17.7667C5.23303 17.7666 5.23297 17.7665 5.23291 17.7665C4.76485 17.2977 4.50195 16.6624 4.50195 16C4.50195 15.3379 4.7646 14.7028 5.23224 14.2342C5.23252 14.2339 5.2328 14.2336 5.23309 14.2333L10.9413 8.5751L10.9418 8.5746C11.0355 8.48147 11.1622 8.4292 11.2943 8.4292C11.4264 8.4292 11.5531 8.48147 11.6468 8.5746L11.6472 8.57499M6.58931 15.5L11.6472 8.57499M11.6472 8.57499C11.6941 8.62147 11.7313 8.67677 11.7567 8.7377C11.782 8.79863 11.7951 8.86399 11.7951 8.92999C11.7951 8.996 11.782 9.06135 11.7567 9.12228C11.7313 9.18313 11.6942 9.23836 11.6474 9.2848L11.6472 8.57499Z" fill="#7F3DFF" stroke="#212325"/>
</svg>
