<svg width="33" height="32" viewBox="0 0 33 32" fill="none" xmlns="http://www.w3.org/2000/svg">
<path d="M23.1973 14H9.19727C7.87118 14 6.59941 14.5268 5.66173 15.4645C4.72405 16.4021 4.19727 17.6739 4.19727 19V25C4.19727 26.3261 4.72405 27.5979 5.66173 28.5355C6.59941 29.4732 7.87118 30 9.19727 30H23.1973C24.5233 30 25.7951 29.4732 26.7328 28.5355C27.6705 27.5979 28.1973 26.3261 28.1973 25V19C28.1973 17.6739 27.6705 16.4021 26.7328 15.4645C25.7951 14.5268 24.5233 14 23.1973 14ZM16.1973 26C15.4061 26 14.6328 25.7654 13.975 25.3259C13.3172 24.8864 12.8045 24.2616 12.5017 23.5307C12.199 22.7998 12.1198 21.9956 12.2741 21.2196C12.4285 20.4437 12.8094 19.731 13.3688 19.1716C13.9282 18.6122 14.641 18.2312 15.4169 18.0769C16.1928 17.9225 16.9971 18.0017 17.728 18.3045C18.4589 18.6072 19.0836 19.1199 19.5231 19.7777C19.9627 20.4355 20.1973 21.2089 20.1973 22C20.1973 23.0609 19.7758 24.0783 19.0257 24.8284C18.2755 25.5786 17.2581 26 16.1973 26Z" fill="#FD3C4A"/>
<path d="M16.1973 24C17.3018 24 18.1973 23.1046 18.1973 22C18.1973 20.8954 17.3018 20 16.1973 20C15.0927 20 14.1973 20.8954 14.1973 22C14.1973 23.1046 15.0927 24 16.1973 24Z" fill="#FD3C4A"/>
<path d="M16.9074 2.28994C16.8144 2.19621 16.7038 2.12182 16.5819 2.07105C16.4601 2.02028 16.3294 1.99414 16.1974 1.99414C16.0653 1.99414 15.9346 2.02028 15.8128 2.07105C15.6909 2.12182 15.5803 2.19621 15.4874 2.28994L11.2474 6.53994C11.0537 6.72692 10.9423 6.98315 10.9377 7.25226C10.933 7.52138 11.0354 7.78133 11.2224 7.97494C11.4093 8.16855 11.6656 8.27995 11.9347 8.28464C12.2038 8.28933 12.4637 8.18692 12.6574 7.99994L15.1974 5.40994V10.9999C15.1974 11.2652 15.3027 11.5195 15.4902 11.707C15.6778 11.8946 15.9321 11.9999 16.1974 11.9999C16.4626 11.9999 16.7169 11.8946 16.9045 11.707C17.092 11.5195 17.1974 11.2652 17.1974 10.9999V5.40994L19.7374 7.99994C19.9236 8.18468 20.175 8.28883 20.4374 8.28994C20.5773 8.29755 20.7172 8.27567 20.8482 8.22571C20.9791 8.17575 21.0981 8.09883 21.1974 7.99994C21.3836 7.81258 21.4881 7.55912 21.4881 7.29494C21.4881 7.03075 21.3836 6.7773 21.1974 6.58994L16.9074 2.28994Z" fill="#FD3C4A"/>
</svg>
