<svg width="57" height="57" viewBox="0 0 57 57" fill="none" xmlns="http://www.w3.org/2000/svg">
<mask id="path-1-inside-1_1830_742" fill="white">
<path d="M29.5322 29.5306L39.5378 29.5306C39.7096 29.5439 39.8822 29.5215 40.0449 29.4649C40.2076 29.4083 40.3569 29.3187 40.4833 29.2017C40.6098 29.0846 40.7106 28.9427 40.7796 28.7849C40.8486 28.627 40.8842 28.4566 40.8842 28.2843C40.8842 28.112 40.8486 27.9416 40.7796 27.7838C40.7106 27.6259 40.6098 27.484 40.4833 27.367C40.3569 27.2499 40.2076 27.1603 40.0449 27.1037C39.8822 27.0471 39.7096 27.0247 39.5378 27.038L29.5322 27.038L29.5322 17.0325C29.508 16.7186 29.3661 16.4254 29.1351 16.2116C28.904 15.9977 28.6008 15.8789 28.286 15.8789C27.9711 15.8789 27.6679 15.9977 27.4369 16.2116C27.2058 16.4254 27.064 16.7186 27.0397 17.0325L27.0397 27.038L17.0341 27.038C16.7039 27.039 16.3875 27.1706 16.154 27.4041C15.9205 27.6377 15.7888 27.9541 15.7879 28.2843C15.7888 28.6145 15.9205 28.931 16.154 29.1645C16.3875 29.398 16.7039 29.5296 17.0341 29.5306L27.0397 29.5306L27.0397 39.5361C27.0407 39.8664 27.1723 40.1828 27.4058 40.4163C27.6393 40.6498 27.9557 40.7814 28.286 40.7824C28.6162 40.7814 28.9326 40.6498 29.1661 40.4163C29.3996 40.1828 29.5313 39.8664 29.5322 39.5361L29.5322 29.5306Z"/>
</mask>
<path d="M29.5322 29.5306L39.5378 29.5306C39.7096 29.5439 39.8822 29.5215 40.0449 29.4649C40.2076 29.4083 40.3569 29.3187 40.4833 29.2017C40.6098 29.0846 40.7106 28.9427 40.7796 28.7849C40.8486 28.627 40.8842 28.4566 40.8842 28.2843C40.8842 28.112 40.8486 27.9416 40.7796 27.7838C40.7106 27.6259 40.6098 27.484 40.4833 27.367C40.3569 27.2499 40.2076 27.1603 40.0449 27.1037C39.8822 27.0471 39.7096 27.0247 39.5378 27.038L29.5322 27.038L29.5322 17.0325C29.508 16.7186 29.3661 16.4254 29.1351 16.2116C28.904 15.9977 28.6008 15.8789 28.286 15.8789C27.9711 15.8789 27.6679 15.9977 27.4369 16.2116C27.2058 16.4254 27.064 16.7186 27.0397 17.0325L27.0397 27.038L17.0341 27.038C16.7039 27.039 16.3875 27.1706 16.154 27.4041C15.9205 27.6377 15.7888 27.9541 15.7879 28.2843C15.7888 28.6145 15.9205 28.931 16.154 29.1645C16.3875 29.398 16.7039 29.5296 17.0341 29.5306L27.0397 29.5306L27.0397 39.5361C27.0407 39.8664 27.1723 40.1828 27.4058 40.4163C27.6393 40.6498 27.9557 40.7814 28.286 40.7824C28.6162 40.7814 28.9326 40.6498 29.1661 40.4163C29.3996 40.1828 29.5313 39.8664 29.5322 39.5361L29.5322 29.5306Z" fill="black"/>
<path d="M29.5322 29.5306L29.5322 27.0306L27.0322 27.0306L27.0322 29.5306L29.5322 29.5306ZM39.5378 29.5306L39.7306 27.038L39.6344 27.0306H39.5378L39.5378 29.5306ZM39.5378 27.038L39.5378 29.538H39.6344L39.7306 29.5306L39.5378 27.038ZM29.5322 27.038L27.0322 27.038L27.0322 29.538H29.5322L29.5322 27.038ZM29.5322 17.0325L32.0322 17.0325V16.9359L32.0248 16.8396L29.5322 17.0325ZM27.0397 17.0325L24.5471 16.8396L24.5397 16.9359V17.0325L27.0397 17.0325ZM27.0397 27.038L27.0397 29.538H29.5397L29.5397 27.038H27.0397ZM17.0341 27.038L17.0341 24.538L17.0267 24.538L17.0341 27.038ZM15.7879 28.2843L13.2879 28.2769L13.2878 28.2843L13.2879 28.2917L15.7879 28.2843ZM17.0341 29.5306L17.0267 32.0306L17.0341 32.0306L17.0341 29.5306ZM27.0397 29.5306H29.5397V27.0306H27.0397V29.5306ZM27.0397 39.5361L24.5397 39.5361L24.5397 39.5436L27.0397 39.5361ZM28.286 40.7824L28.2785 43.2824L28.286 43.2824L28.2934 43.2824L28.286 40.7824ZM29.5322 39.5361L32.0322 39.5436L32.0322 39.5361L29.5322 39.5361ZM29.5322 32.0306L39.5378 32.0306L39.5378 27.0306L29.5322 27.0306L29.5322 32.0306ZM39.345 32.0231C39.8603 32.063 40.3782 31.9959 40.8664 31.8261L39.2235 27.1037C39.3862 27.0471 39.5589 27.0247 39.7306 27.038L39.345 32.0231ZM40.8664 31.8261C41.3545 31.6563 41.8023 31.3874 42.1815 31.0363L38.7851 27.367C38.9115 27.2499 39.0608 27.1603 39.2235 27.1037L40.8664 31.8261ZM42.1815 31.0363C42.5608 30.6853 42.8635 30.2596 43.0704 29.786L38.4888 27.7838C38.5578 27.6259 38.6587 27.484 38.7851 27.367L42.1815 31.0363ZM43.0704 29.786C43.2774 29.3124 43.3842 28.8011 43.3842 28.2843L38.3842 28.2843C38.3842 28.112 38.4198 27.9416 38.4888 27.7838L43.0704 29.786ZM43.3842 28.2843C43.3842 27.7675 43.2774 27.2562 43.0704 26.7826L38.4888 28.7849C38.4198 28.627 38.3842 28.4566 38.3842 28.2843L43.3842 28.2843ZM43.0704 26.7826C42.8635 26.3091 42.5608 25.8834 42.1815 25.5323L38.7851 29.2017C38.6587 29.0846 38.5578 28.9427 38.4888 28.7849L43.0704 26.7826ZM42.1815 25.5323C41.8023 25.1812 41.3545 24.9123 40.8664 24.7425L39.2235 29.4649C39.0608 29.4083 38.9115 29.3187 38.7851 29.2017L42.1815 25.5323ZM40.8664 24.7425C40.3782 24.5727 39.8602 24.5056 39.345 24.5455L39.7306 29.5306C39.5589 29.5439 39.3862 29.5215 39.2235 29.4649L40.8664 24.7425ZM39.5378 24.538L29.5322 24.538L29.5322 29.538L39.5378 29.538L39.5378 24.538ZM32.0322 27.038L32.0322 17.0325L27.0322 17.0325L27.0322 27.038L32.0322 27.038ZM32.0248 16.8396C31.9519 15.898 31.5264 15.0185 30.8333 14.3769L27.4369 18.0462C27.2058 17.8324 27.064 17.5392 27.0397 17.2253L32.0248 16.8396ZM30.8333 14.3769C30.1402 13.7353 29.2304 13.3789 28.286 13.3789L28.286 18.3789C27.9711 18.3789 27.6679 18.2601 27.4369 18.0462L30.8333 14.3769ZM28.286 13.3789C27.3415 13.3789 26.4318 13.7353 25.7386 14.3769L29.1351 18.0462C28.904 18.2601 28.6008 18.3789 28.286 18.3789L28.286 13.3789ZM25.7386 14.3769C25.0455 15.0185 24.62 15.898 24.5471 16.8396L29.5322 17.2253C29.508 17.5392 29.3661 17.8324 29.1351 18.0462L25.7386 14.3769ZM24.5397 17.0325L24.5397 27.038H29.5397L29.5397 17.0325L24.5397 17.0325ZM27.0397 24.538L17.0341 24.538L17.0341 29.538L27.0397 29.538L27.0397 24.538ZM17.0267 24.538C16.036 24.541 15.0867 24.9358 14.3862 25.6364L17.9217 29.1719C17.6882 29.4054 17.3718 29.537 17.0416 29.538L17.0267 24.538ZM14.3862 25.6364C13.6857 26.3369 13.2908 27.2862 13.2879 28.2769L18.2878 28.2917C18.2869 28.622 18.1552 28.9384 17.9217 29.1719L14.3862 25.6364ZM13.2879 28.2917C13.2908 29.2824 13.6857 30.2317 14.3862 30.9322L17.9217 27.3967C18.1552 27.6302 18.2869 27.9466 18.2878 28.2769L13.2879 28.2917ZM14.3862 30.9322C15.0867 31.6328 16.036 32.0276 17.0267 32.0306L17.0416 27.0306C17.3718 27.0316 17.6882 27.1632 17.9217 27.3967L14.3862 30.9322ZM17.0341 32.0306L27.0397 32.0306V27.0306L17.0341 27.0306L17.0341 32.0306ZM24.5397 29.5306V39.5361L29.5397 39.5361L29.5397 29.5306H24.5397ZM24.5397 39.5436C24.5426 40.5343 24.9375 41.4836 25.638 42.1841L29.1736 38.6485C29.4071 38.8821 29.5387 39.1985 29.5397 39.5287L24.5397 39.5436ZM25.638 42.1841C26.3386 42.8846 27.2878 43.2795 28.2785 43.2824L28.2934 38.2824C28.6236 38.2834 28.9401 38.415 29.1736 38.6485L25.638 42.1841ZM28.2934 43.2824C29.2841 43.2795 30.2334 42.8846 30.9339 42.1841L27.3984 38.6485C27.6319 38.415 27.9483 38.2834 28.2785 38.2824L28.2934 43.2824ZM30.9339 42.1841C31.6344 41.4836 32.0293 40.5343 32.0322 39.5436L27.0323 39.5287C27.0332 39.1985 27.1649 38.8821 27.3984 38.6485L30.9339 42.1841ZM32.0322 39.5361V29.5306L27.0322 29.5306L27.0322 39.5361L32.0322 39.5361Z" fill="#FCFCFC" mask="url(#path-1-inside-1_1830_742)"/>
</svg>
