<svg width="24" height="24" viewBox="0 0 24 24" fill="none" xmlns="http://www.w3.org/2000/svg">
<path d="M15.0982 13.4475V14.1975C15.0982 14.69 15.0012 15.1776 14.8127 15.6326C14.6243 16.0875 14.348 16.5009 13.9998 16.8492C13.6516 17.1974 13.2382 17.4736 12.7832 17.6621C12.3283 17.8505 11.8406 17.9475 11.3482 17.9475H8.90317C8.8916 18.3577 8.76809 18.7569 8.54601 19.1019C8.32392 19.4469 8.01171 19.7246 7.64317 19.905C7.33579 20.0586 6.99677 20.1382 6.65317 20.1375C6.14487 20.1405 5.65053 19.9713 5.25067 19.6575L2.46817 17.475C2.19717 17.2647 1.97785 16.9952 1.82697 16.6871C1.67609 16.379 1.59766 16.0405 1.59766 15.6975C1.59766 15.3545 1.67609 15.016 1.82697 14.7079C1.97785 14.3998 2.19717 14.1303 2.46817 13.92L5.25067 11.7375C5.58591 11.4699 5.99065 11.3038 6.4172 11.2586C6.84374 11.2134 7.27431 11.2911 7.65817 11.4825C8.16931 11.727 8.56296 12.1638 8.75317 12.6975H14.3257C14.426 12.6945 14.526 12.7117 14.6196 12.748C14.7132 12.7843 14.7986 12.8391 14.8706 12.9091C14.9426 12.979 14.9999 13.0627 15.039 13.1552C15.0781 13.2477 15.0982 13.3471 15.0982 13.4475Z" fill="#D3BDFF"/>
<path d="M22.4023 8.30259C22.4024 8.64558 22.324 8.98405 22.1733 9.29212C22.0225 9.6002 21.8032 9.86972 21.5323 10.0801L18.7498 12.2626C18.3444 12.5776 17.8458 12.7491 17.3323 12.7501C16.9887 12.7508 16.6497 12.6712 16.3423 12.5176C15.8312 12.2731 15.4375 11.8363 15.2473 11.3026H9.65234C9.45343 11.3026 9.26267 11.2236 9.12201 11.0829C8.98136 10.9423 8.90234 10.7515 8.90234 10.5526V9.80259C8.90234 8.80802 9.29743 7.8542 10.0007 7.15094C10.704 6.44767 11.6578 6.05259 12.6523 6.05259H15.0973C15.1065 5.6333 15.2326 5.22491 15.4615 4.8735C15.6904 4.52209 16.013 4.24165 16.3928 4.06383C16.7726 3.88601 17.1946 3.81788 17.6111 3.86714C18.0276 3.91639 18.422 4.08107 18.7498 4.34259L21.5323 6.52509C21.8032 6.73546 22.0225 7.00498 22.1733 7.31305C22.324 7.62112 22.4024 7.95959 22.4023 8.30259Z" fill="#7F3DFF"/>
</svg>
