<svg width="32" height="32" viewBox="0 0 32 32" fill="none" xmlns="http://www.w3.org/2000/svg">
<path d="M25.1897 12.4605L13.1897 24.4605C12.9136 24.7307 12.5671 24.9178 12.1897 25.0005L8.64971 25.7105C8.32743 25.7742 7.99441 25.7576 7.68008 25.662C7.36576 25.5665 7.07981 25.395 6.84751 25.1627C6.6152 24.9304 6.4437 24.6444 6.34816 24.3301C6.25262 24.0158 6.23598 23.6828 6.29972 23.3605L6.99971 19.8505C7.08239 19.4731 7.26951 19.1266 7.53971 18.8505L19.3797 7.00047C19.7663 6.60436 20.2282 6.28958 20.7383 6.07466C21.2483 5.85974 21.7962 5.74902 22.3497 5.74902C22.9032 5.74902 23.4511 5.85974 23.9612 6.07466C24.4712 6.28958 24.9331 6.60436 25.3197 7.00047C26.0087 7.76041 26.3793 8.75598 26.3551 9.78144C26.3309 10.8069 25.9137 11.7839 25.1897 12.5105V12.4605Z" stroke="#212325" stroke-width="2" stroke-linecap="round" stroke-linejoin="round"/>
</svg>
