<svg width="32" height="32" viewBox="0 0 32 32" fill="none" xmlns="http://www.w3.org/2000/svg">
<path d="M10 28C13.3137 28 16 25.3137 16 22C16 18.6863 13.3137 16 10 16C6.68629 16 4 18.6863 4 22C4 25.3137 6.68629 28 10 28Z" fill="#FCFCFC"/>
<path d="M22 16C25.3137 16 28 13.3137 28 10C28 6.68629 25.3137 4 22 4C18.6863 4 16 6.68629 16 10C16 13.3137 18.6863 16 22 16Z" fill="#FCFCFC"/>
<path d="M6.15907 14C6.25489 14.0359 6.35677 14.0529 6.45907 14.05C6.67965 14.0601 6.89737 13.9969 7.07826 13.8703C7.25916 13.7437 7.39306 13.5607 7.45907 13.35C7.819 12.1997 8.40634 11.1334 9.18622 10.2143C9.9661 9.29532 10.9226 8.54231 11.9991 8V9C11.9991 9.26522 12.1044 9.51957 12.292 9.70711C12.4795 9.89464 12.7339 10 12.9991 10C13.2643 10 13.5186 9.89464 13.7062 9.70711C13.8937 9.51957 13.9991 9.26522 13.9991 9V5C13.9991 4.73478 13.8937 4.48043 13.7062 4.29289C13.5186 4.10536 13.2643 4 12.9991 4H8.99907C8.73385 4 8.4795 4.10536 8.29196 4.29289C8.10443 4.48043 7.99907 4.73478 7.99907 5C7.99907 5.26522 8.10443 5.51957 8.29196 5.70711C8.4795 5.89464 8.73385 6 8.99907 6H11.4191C10.0182 6.64011 8.76745 7.56725 7.74766 8.72141C6.72786 9.87557 5.9618 11.231 5.49907 12.7C5.45261 12.8285 5.43296 12.9651 5.44134 13.1014C5.44971 13.2378 5.48594 13.371 5.54779 13.4928C5.60963 13.6146 5.69578 13.7225 5.80091 13.8097C5.90604 13.8969 6.02794 13.9617 6.15907 14Z" fill="#FCFCFC"/>
<path d="M19 21.9998C18.7348 21.9998 18.4804 22.1051 18.2929 22.2927C18.1054 22.4802 18 22.7346 18 22.9998V26.9998C18 27.265 18.1054 27.5194 18.2929 27.7069C18.4804 27.8944 18.7348 27.9998 19 27.9998H23C23.2652 27.9998 23.5196 27.8944 23.7071 27.7069C23.8946 27.5194 24 27.265 24 26.9998C24 26.7346 23.8946 26.4802 23.7071 26.2927C23.5196 26.1051 23.2652 25.9998 23 25.9998H20.57C22.1462 25.2806 23.5303 24.1992 24.6095 22.8438C25.6886 21.4883 26.4323 19.8971 26.78 18.1998C26.8063 18.0685 26.8064 17.9333 26.7804 17.8019C26.7544 17.6705 26.7028 17.5455 26.6285 17.4341C26.5542 17.3227 26.4587 17.227 26.3475 17.1524C26.2362 17.0779 26.1113 17.026 25.98 16.9998C25.8487 16.9735 25.7135 16.9734 25.5821 16.9994C25.4507 17.0254 25.3257 17.077 25.2143 17.1513C25.1029 17.2255 25.0072 17.3211 24.9327 17.4323C24.8581 17.5436 24.8063 17.6685 24.78 17.7998C24.5085 19.1355 23.9372 20.3921 23.1092 21.4748C22.2812 22.5575 21.218 23.438 20 24.0498V22.9998C20 22.7346 19.8946 22.4802 19.7071 22.2927C19.5196 22.1051 19.2652 21.9998 19 21.9998Z" fill="#FCFCFC"/>
</svg>
