<svg width="32" height="32" viewBox="0 0 32 32" fill="none" xmlns="http://www.w3.org/2000/svg">
<path d="M27.6703 13.56L25.6703 11.74L18.0003 4.78005C17.4502 4.28809 16.7382 4.01611 16.0003 4.01611C15.2623 4.01611 14.5503 4.28809 14.0003 4.78005L6.35026 11.78L4.35026 13.6C4.21559 13.7367 4.12307 13.9092 4.08374 14.097C4.04441 14.2848 4.05993 14.4799 4.12845 14.6591C4.19697 14.8383 4.3156 14.994 4.47018 15.1077C4.62476 15.2213 4.80877 15.2881 5.00026 15.3C5.25355 15.2886 5.49304 15.1814 5.67026 15L6.00026 14.7V25C6.00026 25.7957 6.31633 26.5588 6.87894 27.1214C7.44155 27.684 8.20461 28 9.00026 28H23.0003C23.7959 28 24.559 27.684 25.1216 27.1214C25.6842 26.5588 26.0003 25.7957 26.0003 25V14.74L26.3303 15.04C26.5137 15.2067 26.7524 15.2994 27.0003 15.3C27.2019 15.2995 27.3986 15.2381 27.5647 15.1237C27.7308 15.0094 27.8584 14.8475 27.9309 14.6594C28.0033 14.4712 28.0172 14.2656 27.9707 14.0694C27.9242 13.8732 27.8195 13.6957 27.6703 13.56Z" fill="#7F3DFF"/>
</svg>
