<svg width="32" height="32" viewBox="0 0 32 32" fill="none" xmlns="http://www.w3.org/2000/svg">
<path d="M28 15H17V4C19.8412 4.22837 22.5083 5.46063 24.5239 7.47614C26.5394 9.49166 27.7716 12.1588 28 15Z" fill="#C6C6C6"/>
<path d="M27.9993 17C27.8002 19.2756 26.9558 21.4471 25.5653 23.2594C24.1747 25.0716 22.2958 26.4493 20.1493 27.2306C18.0028 28.0119 15.6778 28.1643 13.4477 27.6699C11.2176 27.1755 9.17487 26.0549 7.55964 24.4396C5.94441 22.8244 4.82376 20.7817 4.32936 18.5516C3.83496 16.3214 3.98736 13.9965 4.76865 11.85C5.54994 9.7035 6.92766 7.82457 8.73992 6.43401C10.5522 5.04346 12.7237 4.19905 14.9993 4V16C14.9993 16.2652 15.1046 16.5196 15.2922 16.7071C15.4797 16.8946 15.7341 17 15.9993 17H27.9993Z" fill="#C6C6C6"/>
</svg>
